<?xml version="1.0" encoding="iso-8859-1"?>
<!-- Generator: Adobe Illustrator 16.0.0, SVG Export Plug-In . SVG Version: 6.00 Build 0)  -->
<!DOCTYPE svg PUBLIC "-//W3C//DTD SVG 1.1//EN" "http://www.w3.org/Graphics/SVG/1.1/DTD/svg11.dtd">
<svg version="1.1" id="Capa_1" xmlns="http://www.w3.org/2000/svg" xmlns:xlink="http://www.w3.org/1999/xlink" x="0px" y="0px"
	 width="576.84px" height="576.84px" viewBox="0 0 576.84 576.84" style="enable-background:new 0 0 576.84 576.84;"
	 xml:space="preserve">
<g>
	<g>
		<path d="M570.833,183.139c-2.312-0.795-4.32-2.766-6.165-4.516c-1.566-1.49-2.642-3.481-4.049-5.151
			c-3.003-3.552-6.07-7.04-9.126-10.544c-1.998-2.294-3.931-4.652-6.059-6.821c-3.948-4.014-8.015-7.903-12.028-11.851
			c-0.225-0.216-0.385-0.502-0.627-0.707c-3.517-2.979-7.625-5.497-10.396-9.049c-1.401-1.797-2.447-3.875-3.423-6.058
			c-1.566-3.518-4.77-6.502-7.193-6.186c-1.253,0.163-2.477,0.756-3.352,2.547c-0.242,0.497-3.563,0.249-4.77-0.617
			c-2.382-1.711-4.693-3.523-6.998-5.376c-3.795-3.05-7.561-3.623-9.398-2.196c-0.887,0.692-2.051,0.843-3.931-0.277
			c-4.374-2.598-9.097-4.631-13.755-6.7c-2.541-1.126-5.254-1.876-7.932-2.657c-1.034-0.304-2.938-0.618-3.127-0.254
			c-0.55,1.076-0.922,2.704-0.467,3.715c0.514,1.15,2.488,1.67,2.955,2.82c0.786,1.957,1.04,4.179,1.076,6.301
			c0.006,0.254-2.701,0.553-4.149,0.848c-2.364,0.485-4.734,0.925-7.075,1.507c-1.183,0.292-2.258,1.035-3.44,1.265
			c-2.926,0.564-5.863,1.108-8.777,1.634c-4.853,0.878-11.484-2.754-14.499-0.532c-3.015,2.223-3.635,5.973-3.05,6.724
			c0.579,0.75-0.846,2.095-3.187,3.002c-2.334,0.907-4.35,2.09-4.516,2.622c-0.106,0.358-0.26,0.695-0.525,0.848
			c-4.492,2.619-9.085,5.06-13.577,7.681c-0.816,0.476-1.762,1.542-1.773,2.346c-0.006,0.642,1.276,1.369,2.068,1.93
			c0.722,0.517,1.466,0.999,2.37,1.575c1.324,0.848-0.219,3.304-3.439,5.482c-2.033,1.38-3.942,2.651-5.882,3.875
			c-0.815,0.514-2.24,0.89-2.996,0.526c-4.179-2.003-6.248,0.497-8.884,3.186c-3.021,3.073-4.776,7.589-10.421,8.023
			c-4.717,0.37-9.333,2.427-13.914,3.952c-1.1,0.364-2.181,1.424-2.819,2.453c-2.004,3.25-3.925,6.573-6.431,9.363
			c-4.197,4.678-6.242,6.975-4.191,10.019c2.052,3.044,0.591,6.035,1.378,5.506c0.543-0.363,0.951-0.712,1.424-0.949
			c2.606-1.339,5.214-3.44,7.944-3.65c6.229-0.484,12.549-0.174,18.813,0.145c1.142,0.06,2.271,0.364,3.394,0.739
			c0.449,0.15,0.792,0.363,1.017,0.611c-62.701,23.416-146.723-24.757-198.058,25.337c-18.56-3.009-35.27,6.203-53.634,7.468
			c-1.041-0.006-2.11-0.024-3.038,0.023c-11.184-3.783-22.562-4.327-33.881-1.079c-9.368,1.558-16.455,8.062-23.921,13.479
			c-0.029,0.021-0.047,0.044-0.077,0.068c-14.806,3.801-29.217,9.292-44.65,8.842c-3.292-1.519-6.555-3.085-9.404-5.175
			c-5.917-4.332-8.553-9.962-9.239-9.525c-0.585,0.367-1.058,0.695-1.028,0.972c0.419,4.309-0.018,9.165,1.868,12.771
			c4.924,9.395,13.488,15.182,22.815,19.872c0.804,0.404,1.513,0.999,2.229,1.669c1.129,1.055,3.57-1.761,7.418-1.368
			c3.854,0.39,3.163,5.781-4.457,7.743c-7.625,1.954-8.683,6.934-1.856,7.82c4.208,0.55,8.37,0.52,12.436,0.958
			c3.316,0.355,6.862,0.402,10.037-0.419c4.658-1.2,9.055-3.372,13.618-4.968c0.68-0.236,1.773,0.204,2.471,0.653
			c4.835,3.115,9.54,6.443,14.452,9.428c2.382,1.442,5.219,3.388,7.696,3.192c7.808-0.604,13.411,3.115,19.399,7.281
			c5.326,3.719,11.313,6.993,18.436,3.198c1.897-1.011,3.925-1.797,6.064-2.548c3.434-1.211,9.18-8.334,12.838-15.905
			c3.653-7.575,11.106-9.948,14.375-3.727c3.263,6.227,3.954,14.154,5.893,16.654c1.194,1.531,2.346,3.044,3.44,4.593
			c7.004,9.924-1.218,25.522-9.126,29.335c-4.528,2.187-9.274,3.919-13.896,5.898c-1.696,0.728-3.381,1.467-5.071,2.217
			c-2.79,1.235-5.414,3.251-5.911,4.48c-0.295,0.738-0.662,1.478-1.17,2.099c-3.34,4.043-5.893,8.222-6.561,13.683
			c-0.603,4.906-2.364,9.664-3.452,14.529c-0.739,3.286-1.1,6.661-1.797,9.953c-0.231,1.076-0.78,2.354-1.602,3.003
			c-3.753,2.944-6.177,6.442-6.638,11.384c-0.213,2.288-1.005,4.771-2.288,6.656c-4.516,6.644-6.815,13.618-4.758,21.65
			c0.78,3.057-0.603,4.393-3.659,4.191c-1.17-0.077-7.542,4.77-7.424,5.863c0.467,4.362,0.674,8.818,1.803,13.021
			c0.662,2.441,2.92,5.432,6.094,3.228c1.856-1.295,3.553-2.72,5.22-4.209c2.754-2.471,4.77-4.781,4.551-5.071
			c-0.207-0.289,0.722-0.396,2.205-0.396s1.371-1.377,0.101-3.327c-1.413-2.175,0.118-1.661,1.613-2.866
			c2.63-2.129,5.586-4.114,7.796-6.615c2.577-2.92,5.739-6.247,6.431-9.794c1.247-6.384,0.603-13.146,1.235-19.677
			c0.225-2.293,1.838-4.463,2.89-6.649c0.219-0.449,1.165-0.851,1.1-1.082c-2.199-7.749,4.203-12.365,6.969-18.151
			c1.56-3.257,3.966-6.869,9.758-6.018c3.848,0.562,8.222-2.264,12.336-3.646c1.933-0.65,3.848-1.33,5.757-1.998
			c3.168-1.129,7.264-3.293,9.15-4.806c1.141-0.916,2.323-1.785,3.605-2.465c6.1-3.222,12.354-6.147,18.619-9.031
			c2.938-1.354,6.011-0.597,6.307,2.701c0.597,6.661,1.288,13.589,0.053,20.043c-0.91,4.776-0.307,8.009,2.979,10.935
			c3.629,3.228,7.737,5.941,11.201,9.328c3.411,3.34,6.75,6.75,10.078,10.201c5.491,5.704,9.528,10.676,9.02,11.101
			c-0.502,0.426,3.417,2.483,4.965,7.271c0.939,2.896,1.194,6.117,2.601,8.701c1.43,2.63,3.209,5.106,4.457,7.767
			c2.092,4.479,7.655,7.985,11.544,12.991c3.883,5.007,2.583,13.813,5.692,15.114c1.844,0.763,3.931,0.875,6.011,0.65
			c2.092-0.225,4.149-0.692,6.177-1.224c3.364-0.881,5.87-3.062,5.645-4.823c-0.148-1.171-0.313-2.188-0.686-3.133
			c-1.088-2.808-1.396-5.894-5.355-7.223c-2.447-0.822-4.356-3.979-5.917-6.449c-1.637-2.606-2.205-5.887-3.889-8.446
			c-2.5-3.807-5.757-7.104-8.352-10.852c-6.088-8.802-12.058-17.68-17.898-26.652c-1.685-2.595-2.754-5.615-4.338-8.275
			c-0.816-14.859-0.319-29.672,0.443-44.496c0.018-0.059,0.053-0.112,0.065-0.183c1.265-5.196,2.547-10.397,3.729-15.622
			c1.2-5.272,2.648-10.527,3.298-15.883c0.485-3.966,2.571-4.781,5.722-4.196c2.802,0.521,5.544,1.448,8.24,2.399
			c6.632,2.353,13.411,4.404,19.76,7.383c4.551,2.134,8.187,6.254,12.767,8.27c7.4,3.25,15.055,6.431,22.929,7.932
			c10.071,1.927,20.451,2.459,30.729,3.015c7.95,0.432,15.947-0.184,23.909,0.083c1.229,0.041,3.056,2.121,3.428,3.559
			c0.769,2.955,0.84,6.117,1.012,9.202c0.07,1.206,0.082,2.406,0.076,3.564c-0.012,1.975,0.852,4.534,1.945,5.728
			c0.655,0.709,1.317,1.442,1.938,2.205c0.686,0.827,0.922,2.14,1.731,2.719c5.284,3.795,5.834,8.99,4.989,14.877
			c-0.58,3.984-1.378,8.205-0.645,12.047c1.011,5.331-1.396,8.109-5.296,10.503c-1.603,0.981-3.228,2.033-4.978,2.684
			c-7.831,2.926-14.552,9.174-23.85,7.778c-2.24-0.337-3.966,0.355-5.024,3.121c-1.105,2.891-3.121,5.987-6.98,1.938
			c-0.645-0.686-1.756-0.939-3.168-1.2c-1.874-0.342-4.676,5.391-6.277,12.898c-1.607,7.512-0.976,13.169,1.407,12.643
			c1.607-0.36,2.955-0.668,4.291-1.034c5.385-1.46,8.754-5.202,11.738-9.741c1.212-1.832,3.878-3.274,6.124-3.766
			c7.087-1.536,14.842-0.578,20.67-6.354c2.004-1.986,4.196-3.859,6.537-5.426c3.233-2.164,6.939-3.671,10.001-6.041
			c3.346-2.583,6.62-5.261,9.871-7.956c5.391-4.475,9.61-8.251,9.393-8.346c-0.124-0.06-0.272-0.101-0.408-0.083
			c-5.751,0.686-6.603,0.189-5.319-4.51c0.023-0.083,0.082-0.13,0.1-0.213c0.042-0.201,0.089-0.402,0.131-0.604
			c0.053-0.159,0.082-0.283,0.13-0.461c0.851-2.843,2.943-6.206,2.122-8.499c-0.06-0.172-0.065-0.343-0.118-0.509
			c2.777-11.986,5.645-23.908,6.661-36.18c3.44,0.095,7.021,1.082,10.261,0.396c3.642-0.774,5.722,0.384,7.778,2.926
			c3.766,4.651,7.566,9.268,11.443,13.819c4.037,4.729,9.286,8.789,12.023,14.156c3.587,7.058,6.064,14.954,7.465,22.769
			c1.218,6.785,4.433,11.804,8.807,16.579c5.816,6.343,10.013,13.447,10.977,22.26c0.615,5.64,0.993,11.704,8.553,12.951
			c0.521,0.082,1.224,1.123,1.265,1.761c0.213,3.281,0.06,6.591,0.408,9.854c0.16,1.472,0.815,3.582,1.897,4.144
			c6.951,3.617,14.517,2.831,21.899,2.027c1.419-0.147,3.96-3.677,3.617-4.238c-2.323-3.877-5.137-7.483-8.057-10.964
			c-2.27-2.713-7.062-5.226-6.944-7.637c0.307-6.337-4.197-9.854-7.063-13.678c-1.957-2.606-4.227-4.988-5.669-8.098
			c-0.525-1.141-1.17-2.217-1.85-3.263c-1.129-1.744-2.317-5.267-2.643-7.897c-0.188-1.572-0.39-3.162-0.597-4.752
			c-1.188-9.203-2.536-18.199-8.44-26.055c-2.471-3.292-3.263-7.92-4.48-12.052c-0.686-2.312-0.668-4.829-0.987-7.247
			c-0.283-2.163-0.638-4.32-0.875-6.484c-0.13-1.234,0.065-2.518-0.165-3.729c-0.503-2.648-1.105-5.297-1.814-7.897
			c-1.496-5.474-2.164-11.29-7.288-15.12c-3.038-2.275-4.723-5.047-1.566-8.812c1.419-1.696,2.589-3.942,2.973-6.094
			c1.171-6.432,2.282-12.909,2.695-19.417c0.515-8.198,0.515-16.447,0.319-24.66c-0.101-4.202-0.384-8.662-1.873-12.501
			c-0.857-2.196-1.277-4.521-1.366-6.845c7.472-16.213,15.327-31.933,17.969-49.502c6.686-1.897,12.927-4.891,18.53-9.239
			c12.194,8.612,25.842,12.017,40.335,10.102c0.249,0.213,0.485,0.393,0.739,0.624c3.239,2.923,6.821,5.473,10.355,8.05
			c0.674,0.491,1.814,0.571,2.707,0.479c5.692-0.582,9.913-4.176,14.429-7.19c3.191-2.125,4.48-4.643,2.926-8.494
			c-0.443-1.088,0.254-2.728,0.645-4.049C577.802,188.621,575.184,184.64,570.833,183.139z"/>
	</g>
</g>
<g>
</g>
<g>
</g>
<g>
</g>
<g>
</g>
<g>
</g>
<g>
</g>
<g>
</g>
<g>
</g>
<g>
</g>
<g>
</g>
<g>
</g>
<g>
</g>
<g>
</g>
<g>
</g>
<g>
</g>
</svg>
